REM DIRINDEX 1\4,1\2\5,1\2\6,1\3\7,1\3\8,1\3\9,1\3\10
REM DIRNAME folder01,folder02,folder03,folder04,folder05,folder06,folder07,folder08,folder09,folder10
TITLE ""
FILE "DISC2Track43.mp3" MP3
  TRACK 01 AUDIO
    TITLE "0:"
    INDEX 01 00:00:00
  TRACK 02 AUDIO
    TITLE "7:cjc107_2391"
    INDEX 01 00:00:01
  TRACK 03 AUDIO
    TITLE "0:"
    INDEX 01 00:02:69
  TRACK 04 AUDIO
    TITLE "8:cjc107_2392"
    INDEX 01 00:04:05
  TRACK 05 AUDIO
    TITLE "0:"
    INDEX 01 00:05:28
  TRACK 06 AUDIO
    TITLE "9:cjc107_2393"
    INDEX 01 00:05:32
  TRACK 07 AUDIO
    TITLE "0:"
    INDEX 01 00:06:69
  TRACK 08 AUDIO
    TITLE "8:cjc107_2394"
    INDEX 01 00:07:41
  TRACK 09 AUDIO
    TITLE "0:"
    INDEX 01 00:08:58
  TRACK 10 AUDIO
    TITLE "9:cjc107_2395"
    INDEX 01 00:08:66
  TRACK 11 AUDIO
    TITLE "0:"
    INDEX 01 00:09:73
  TRACK 12 AUDIO
    TITLE "8:cjc107_2396"
    INDEX 01 00:10:49
  TRACK 13 AUDIO
    TITLE "0:"
    INDEX 01 00:11:60
  TRACK 14 AUDIO
    TITLE "9:cjc107_2397"
    INDEX 01 00:11:66
  TRACK 15 AUDIO
    TITLE "0:"
    INDEX 01 00:14:58
  TRACK 16 AUDIO
    TITLE "8:cjc107_2398"
    INDEX 01 00:15:28
  TRACK 17 AUDIO
    TITLE "0:"
    INDEX 01 00:16:44
  TRACK 18 AUDIO
    TITLE "9:cjc107_2399"
    INDEX 01 00:16:48
  TRACK 19 AUDIO
    TITLE "0:"
    INDEX 01 00:18:54
  TRACK 20 AUDIO
    TITLE "8:cjc107_2400"
    INDEX 01 00:19:24
  TRACK 21 AUDIO
    TITLE "0:"
    INDEX 01 00:20:24
  TRACK 22 AUDIO
    TITLE "9:cjc107_2401"
    INDEX 01 00:20:37
  TRACK 23 AUDIO
    TITLE "0:"
    INDEX 01 00:21:51
  TRACK 24 AUDIO
    TITLE "8:cjc107_2402"
    INDEX 01 00:22:25
  TRACK 25 AUDIO
    TITLE "0:"
    INDEX 01 00:23:51
  TRACK 26 AUDIO
    TITLE "9:cjc107_2403"
    INDEX 01 00:23:57
  TRACK 27 AUDIO
    TITLE "0:"
    INDEX 01 00:24:63
  TRACK 28 AUDIO
    TITLE "8:cjc107_2404"
    INDEX 01 00:25:37
  TRACK 29 AUDIO
    TITLE "0:"
    INDEX 01 00:26:32
  TRACK 30 AUDIO
    TITLE "9:cjc107_2405"
    INDEX 01 00:26:40
  TRACK 31 AUDIO
    TITLE "0:"
    INDEX 01 00:28:21
  TRACK 32 AUDIO
    TITLE "8:cjc107_2406"
    INDEX 01 00:28:66
  TRACK 33 AUDIO
    TITLE "0:"
    INDEX 01 00:30:61
  TRACK 34 AUDIO
    TITLE "9:cjc107_2407"
    INDEX 01 00:30:63
  TRACK 35 AUDIO
    TITLE "0:"
    INDEX 01 00:33:40
  TRACK 36 AUDIO
    TITLE "8:cjc107_2408"
    INDEX 01 00:34:16
  TRACK 37 AUDIO
    TITLE "0:"
    INDEX 01 00:35:15
  TRACK 38 AUDIO
    TITLE "9:cjc107_2409"
    INDEX 01 00:35:19
  TRACK 39 AUDIO
    TITLE "0:"
    INDEX 01 00:36:09
  TRACK 40 AUDIO
    TITLE "8:cjc107_2410"
    INDEX 01 00:36:58
  TRACK 41 AUDIO
    TITLE "0:"
    INDEX 01 00:38:10
  TRACK 42 AUDIO
    TITLE "9:cjc107_2411"
    INDEX 01 00:38:14
  TRACK 43 AUDIO
    TITLE "0:"
    INDEX 01 00:41:30
  TRACK 44 AUDIO
    TITLE "8:cjc107_2412"
    INDEX 01 00:42:00
  TRACK 45 AUDIO
    TITLE "0:"
    INDEX 01 00:43:03
  TRACK 46 AUDIO
    TITLE "9:cjc107_2413"
    INDEX 01 00:43:13
  TRACK 47 AUDIO
    TITLE "0:"
    INDEX 01 00:44:48
  TRACK 48 AUDIO
    TITLE "8:cjc107_2414"
    INDEX 01 00:45:20
  TRACK 49 AUDIO
    TITLE "0:"
    INDEX 01 00:46:25
  TRACK 50 AUDIO
    TITLE "9:cjc107_2415"
    INDEX 01 00:46:27
  TRACK 51 AUDIO
    TITLE "0:"
    INDEX 01 00:49:12
  TRACK 52 AUDIO
    TITLE "8:cjc107_2416"
    INDEX 01 00:49:57
  TRACK 53 AUDIO
    TITLE "0:"
    INDEX 01 00:50:64
  TRACK 54 AUDIO
    TITLE "9:cjc107_2417"
    INDEX 01 00:50:70
  TRACK 55 AUDIO
    TITLE "0:"
    INDEX 01 00:54:34
  TRACK 56 AUDIO
    TITLE "8:cjc107_2418"
    INDEX 01 00:54:74
  TRACK 57 AUDIO
    TITLE "0:"
    INDEX 01 00:56:16
  TRACK 58 AUDIO
    TITLE "9:cjc107_2419"
    INDEX 01 00:56:18
  TRACK 59 AUDIO
    TITLE "0:"
    INDEX 01 00:59:43
  TRACK 60 AUDIO
    TITLE "10:cjc107_2420"
    INDEX 01 01:01:19
  TRACK 61 AUDIO
    TITLE "10:cjc107_2421"
    INDEX 01 01:07:39
  TRACK 62 AUDIO
    TITLE "10:cjc107_2422"
    INDEX 01 01:16:32
  TRACK 63 AUDIO
    TITLE "10:cjc107_2423"
    INDEX 01 01:19:60
  TRACK 64 AUDIO
    TITLE "10:cjc107_2424"
    INDEX 01 01:27:46
  TRACK 65 AUDIO
    TITLE "0:"
    INDEX 01 01:39:04
  TRACK 66 AUDIO
    TITLE "4:cjc107_2425"
    INDEX 01 01:41:57
  TRACK 67 AUDIO
    TITLE "0:"
    INDEX 01 01:44:48
